<svg width="1440" height="315" viewBox="0 0 1440 315" fill="none" xmlns="http://www.w3.org/2000/svg">
<path d="M8.58 62.76C8.58 61.3733 9.01333 60.2467 9.88 59.38C10.92 58.5133 12.22 58.08 13.78 58.08H163.02C166.487 58.08 168.22 59.64 168.22 62.76V86.94C168.22 89.54 166.66 90.84 163.54 90.84H114.92C113.013 90.84 112.06 91.7067 112.06 93.44V246.06C112.06 249.353 110.587 251 107.64 251H70.46C67.86 251 66.56 249.527 66.56 246.58V94.22C66.56 93.0067 66.3 92.14 65.78 91.62C65.4333 91.1 64.74 90.84 63.7 90.84H13.52C10.2267 90.84 8.58 89.54 8.58 86.94V62.76ZM209.412 193.8C209.412 203.507 212.618 211.393 219.032 217.46C225.618 223.353 233.765 226.3 243.472 226.3C249.712 226.3 255.432 225 260.632 222.4C266.005 219.627 271.378 215.12 276.752 208.88C277.445 208.187 278.138 207.84 278.832 207.84C279.352 207.84 280.218 208.1 281.432 208.62L300.152 216.42C301.365 216.94 301.972 217.807 301.972 219.02C301.972 219.887 301.625 220.753 300.932 221.62C292.612 233.407 283.685 241.727 274.152 246.58C264.618 251.26 252.745 253.6 238.532 253.6C225.185 253.6 213.138 250.653 202.392 244.76C191.645 238.867 183.238 230.72 177.172 220.32C171.105 209.747 168.072 197.7 168.072 184.18C168.072 169.62 171.192 156.793 177.432 145.7C183.672 134.433 192.078 125.767 202.652 119.7C213.398 113.633 225.098 110.6 237.752 110.6C250.925 110.6 262.625 113.547 272.852 119.44C283.078 125.16 291.052 133.48 296.772 144.4C302.492 155.32 305.352 168.32 305.352 183.4C305.352 185.653 305.092 187.213 304.572 188.08C304.225 188.947 303.012 189.467 300.932 189.64H212.532C210.452 189.64 209.412 191.027 209.412 193.8ZM261.672 167.8C263.578 167.8 264.792 167.627 265.312 167.28C265.832 166.76 266.092 165.72 266.092 164.16C266.092 159.653 265.052 155.147 262.972 150.64C260.892 146.133 257.858 142.407 253.872 139.46C249.885 136.513 245.032 135.04 239.312 135.04C230.645 135.04 223.538 138.073 217.992 144.14C212.445 150.207 209.758 158.007 209.932 167.54L261.672 167.8ZM424.675 149.08C417.569 139.72 407.429 135.04 394.255 135.04C387.669 135.04 382.209 136.34 377.875 138.94C373.542 141.367 371.375 144.747 371.375 149.08C371.375 151.507 372.329 153.76 374.235 155.84C376.315 157.747 380.215 159.393 385.935 160.78L415.835 168.06C429.529 171.353 439.582 176.64 445.995 183.92C452.409 191.027 455.615 199.433 455.615 209.14C455.615 222.833 449.895 233.667 438.455 241.64C427.015 249.613 412.022 253.6 393.475 253.6C378.569 253.6 365.655 251 354.735 245.8C343.815 240.427 336.102 233.493 331.595 225C330.729 223.787 330.295 222.66 330.295 221.62C330.295 220.407 330.902 219.54 332.115 219.02L349.795 209.92C351.182 209.227 352.395 208.88 353.435 208.88C354.475 208.88 355.429 209.313 356.295 210.18C360.109 215.553 364.702 219.887 370.075 223.18C375.622 226.3 382.902 227.86 391.915 227.86C400.062 227.86 406.649 226.647 411.675 224.22C416.875 221.793 419.475 218.24 419.475 213.56C419.475 210.44 418.175 207.84 415.575 205.76C412.975 203.68 408.555 201.86 402.315 200.3L375.535 194.58C349.189 188.86 336.015 175.773 336.015 155.32C336.015 146.653 338.355 138.94 343.035 132.18C347.889 125.42 354.735 120.133 363.575 116.32C372.415 112.507 382.815 110.6 394.775 110.6C407.429 110.6 418.609 112.94 428.315 117.62C438.195 122.3 445.302 128.193 449.635 135.3C450.675 136.687 451.195 137.9 451.195 138.94C451.195 139.98 450.589 140.847 449.375 141.54L430.655 150.64C430.135 150.987 429.442 151.16 428.575 151.16C427.015 151.16 425.715 150.467 424.675 149.08ZM548.507 140.76C546.6 140.76 545.647 141.8 545.647 143.88V206.54C545.647 212.433 547.033 216.68 549.807 219.28C552.58 221.707 557 222.92 563.067 222.92H577.107C578.32 222.92 579.273 223.353 579.967 224.22C580.66 224.913 581.007 225.953 581.007 227.34L580.747 243.2C580.747 246.667 578.84 248.747 575.027 249.44C567.747 250.48 557.433 251 544.087 251C531.953 251 522.507 248.14 515.747 242.42C508.987 236.7 505.607 228.38 505.607 217.46V144.66C505.607 142.06 504.48 140.76 502.227 140.76H486.367C483.073 140.76 481.427 139.287 481.427 136.34V117.1C481.427 114.5 482.987 113.2 486.107 113.2H504.047C505.433 113.2 506.3 112.247 506.647 110.34L510.287 70.82C510.633 67.8733 511.933 66.4 514.187 66.4H542.527C543.74 66.4 544.693 66.8333 545.387 67.7C546.253 68.5667 546.687 69.78 546.687 71.34V110.34C546.687 112.073 547.553 112.94 549.287 112.94H576.587C579.707 112.94 581.267 114.327 581.267 117.1V136.34C581.267 139.287 579.533 140.76 576.067 140.76H548.507Z" fill="white"/>
<path d="M822.76 113.46C822.76 131.833 816.607 145.613 804.3 154.8C791.993 163.987 775.44 168.58 754.64 168.58H708.88C707.32 168.58 706.54 169.36 706.54 170.92V247.88C706.54 249.96 705.5 251 703.42 251H689.9C687.993 251 687.04 250.047 687.04 248.14V61.2C687.04 59.9867 687.213 59.2067 687.56 58.86C688.08 58.34 688.86 58.08 689.9 58.08H752.04C773.707 58.08 790.867 62.6733 803.52 71.86C816.347 80.8733 822.76 94.74 822.76 113.46ZM802.48 112.68C802.48 98.64 798.06 88.5867 789.22 82.52C780.553 76.4533 767.9 73.42 751.26 73.42H709.66C707.58 73.42 706.54 74.3733 706.54 76.28V149.86C706.54 151.94 707.32 152.98 708.88 152.98H753.08C768.68 152.98 780.813 149.773 789.48 143.36C798.147 136.773 802.48 126.547 802.48 112.68ZM914.002 253.6C901.175 253.6 889.822 250.653 879.942 244.76C870.235 238.693 862.695 230.373 857.322 219.8C851.948 209.053 849.262 196.747 849.262 182.88C849.262 168.84 851.948 156.36 857.322 145.44C862.868 134.347 870.582 125.767 880.462 119.7C890.342 113.633 901.608 110.6 914.262 110.6C926.915 110.6 938.095 113.633 947.802 119.7C957.682 125.767 965.308 134.26 970.682 145.18C976.055 156.1 978.742 168.493 978.742 182.36C978.742 196.227 976.055 208.62 970.682 219.54C965.308 230.287 957.682 238.693 947.802 244.76C938.095 250.653 926.828 253.6 914.002 253.6ZM914.522 239.82C929.082 239.82 940.435 234.707 948.582 224.48C956.902 214.08 961.062 200.04 961.062 182.36C961.062 164.68 956.815 150.553 948.322 139.98C940.002 129.407 928.648 124.12 914.262 124.12C899.702 124.12 888.175 129.407 879.682 139.98C871.188 150.553 866.942 164.68 866.942 182.36C866.942 200.04 871.188 214.08 879.682 224.48C888.175 234.707 899.788 239.82 914.522 239.82ZM1029.35 251C1027.27 251 1026.23 249.96 1026.23 247.88V116.06C1026.23 114.153 1027.1 113.2 1028.83 113.2H1040.01C1041.57 113.2 1042.35 114.067 1042.35 115.8V132.96C1042.35 133.827 1042.61 134.347 1043.13 134.52C1043.65 134.693 1044.26 134.433 1044.95 133.74C1052.06 125.767 1058.91 119.96 1065.49 116.32C1072.08 112.507 1078.75 110.6 1085.51 110.6C1088.81 110.6 1091.15 110.86 1092.53 111.38C1094.09 111.727 1094.87 112.507 1094.87 113.72V125.68C1094.87 126.893 1094.18 127.5 1092.79 127.5C1088.11 126.98 1084.73 126.72 1082.65 126.72C1077.45 126.72 1071.73 128.367 1065.49 131.66C1059.25 134.78 1053.97 138.853 1049.63 143.88C1045.47 148.907 1043.39 153.933 1043.39 158.96V247.88C1043.39 249.96 1042.27 251 1040.01 251H1029.35ZM1166.91 126.46C1165.52 126.46 1164.83 127.153 1164.83 128.54V215.9C1164.83 224.393 1166.04 230.113 1168.47 233.06C1171.07 236.007 1175.32 237.48 1181.21 237.48H1200.19C1201.92 237.48 1202.79 238.347 1202.79 240.08V247.1C1202.79 248.487 1201.92 249.44 1200.19 249.96C1196.03 250.653 1188.49 251 1177.57 251C1166.82 251 1159.11 248.573 1154.43 243.72C1149.92 238.693 1147.67 230.633 1147.67 219.54V128.8C1147.67 127.24 1146.89 126.46 1145.33 126.46H1123.23C1121.67 126.46 1120.89 125.767 1120.89 124.38V115.28C1120.89 113.893 1121.58 113.2 1122.97 113.2H1146.11C1146.98 113.2 1147.58 112.507 1147.93 111.12L1150.53 69.52C1150.53 67.44 1151.31 66.4 1152.87 66.4H1162.23C1164.14 66.4 1165.09 67.5267 1165.09 69.78V111.12C1165.09 112.507 1165.7 113.2 1166.91 113.2H1201.23C1202.62 113.2 1203.31 113.893 1203.31 115.28V124.38C1203.31 125.767 1202.53 126.46 1200.97 126.46H1166.91ZM1327.33 233.58C1320.4 240.34 1313.03 245.367 1305.23 248.66C1297.6 251.953 1289.2 253.6 1280.01 253.6C1266.32 253.6 1255.57 250.22 1247.77 243.46C1239.97 236.7 1236.07 227.513 1236.07 215.9C1236.07 202.38 1241.7 191.72 1252.97 183.92C1264.41 176.12 1281.05 171.44 1302.89 169.88L1326.03 168.06C1328.98 167.713 1330.45 166.413 1330.45 164.16V156.62C1330.45 146.567 1327.24 138.593 1320.83 132.7C1314.59 126.807 1306.1 123.86 1295.35 123.86C1279.4 123.86 1266.14 131.227 1255.57 145.96C1255.05 146.827 1254.53 147.347 1254.01 147.52C1253.49 147.693 1252.88 147.607 1252.19 147.26L1241.53 142.84C1240.84 142.493 1240.49 142.06 1240.49 141.54C1240.49 140.847 1240.75 140.153 1241.27 139.46C1246.64 130.447 1254.01 123.427 1263.37 118.4C1272.73 113.2 1283.65 110.6 1296.13 110.6C1312.25 110.6 1324.73 114.587 1333.57 122.56C1342.58 130.36 1347.09 141.28 1347.09 155.32V247.62C1347.09 249.873 1346.05 251 1343.97 251H1334.35C1332.27 251 1331.23 249.873 1331.23 247.62L1330.71 234.1C1330.36 232.887 1329.93 232.28 1329.41 232.28C1328.89 232.28 1328.2 232.713 1327.33 233.58ZM1330.45 183.66C1330.45 180.713 1329.15 179.413 1326.55 179.76L1307.05 181.32C1271.34 183.92 1253.49 194.84 1253.49 214.08C1253.49 222.053 1256.35 228.38 1262.07 233.06C1267.79 237.74 1275.42 240.08 1284.95 240.08C1290.67 240.08 1296.3 239.04 1301.85 236.96C1307.4 234.88 1312.42 232.107 1316.93 228.64C1325.94 221.187 1330.45 213.82 1330.45 206.54V183.66ZM1418.06 247.1C1418.06 248.66 1417.8 249.7 1417.28 250.22C1416.76 250.74 1415.72 251 1414.16 251H1404.28C1403.06 251 1402.2 250.827 1401.68 250.48C1401.16 249.96 1400.9 249.093 1400.9 247.88L1401.16 61.2C1401.16 59.9867 1401.33 59.2067 1401.68 58.86C1402.02 58.34 1402.72 58.08 1403.76 58.08H1415.46C1417.19 58.08 1418.06 59.12 1418.06 61.2V247.1Z" fill="white"/>
</svg>
